<svg fill="none" height="512" viewBox="0 0 120 120" width="512" xmlns="http://www.w3.org/2000/svg"><path d="m45.7842 34.5792c-7.0484-2.1703-8.0602-7.1945-6.7842-13.5792 1.6266-8.139 8.4107-13.00793 15.4591-9.7524 7.0998 3.2793 7.7148 8.5967 11.3859 14.1075 1.0844 1.6278 7.5906 6.5112 11.9281 3.7982 4.2388-2.6513 4.3374-9.2241 10.3015-14.6501 5.964-5.42597 12.5454-3.2556 17.4254 4.8833 4.88 8.139 2.185 16.0722-6.0395 16.8205-17.8921 1.6278-21.2295 19.0784-17.35 24.4168 4.3375 5.9686 9.2172 2.713 14.0969 7.5964 4.8796 4.8834-1.6266 16.2779-8.675 16.2779s-11.4366-8.5176-15.1812-9.7668c-8.1327-2.713-11.3859 7.5963-5.4218 11.9372 4.0426 2.9423 10.1971 3.1925 8.5706 11.3315-1.8107 9.061-20.5925 15.757-21.5831 3.861-1.0843-13.0222-5.964-13.0221-10.3015-12.4795-4.3374.5425-5.4218 5.4259-5.4218 9.7666 0 4.3409-1.8922 8.8519-12.1936 8.8519-5.5293 0-13.5-5.904-13.5001-13.4999 0-8.2109 2.3797-15.9706 18.1031-14.3428 9.7225 1.0065 10.3015-9.7667 7.5906-11.9371-2.711-2.1704-9.7593-2.713-17.3499-3.2556s-11.139-9.7404-7.3437-18.9645c2.679-6.5112 7.8858-9.7931 14.3921-8.1653 6.5062 1.6278 8.6749 7.5963 10.3015 9.2241 1.6265 1.6278 2.7109 4.3408 9.7593 7.0538s16.8078-3.2556 15.1812-10.3093c-1.6266-7.0538-10.3015-7.0538-17.3499-9.2242z" fill="#743800"/><path d="m87.372 96.6189c1.0664-2.9388 3.5977-4.497 5.4583-5.1683.8679-.3131 1.7952-.3635 2.7141-.4017l.0195-.0008c2.9505-.1228 6.8611-.2855 8.7891 3.336 3.257 6.1209-6.5238 14.1799-12.7414 10.8289-1.3482-.727-5.9377-3.914-4.2396-8.5941z" fill="#dcb088"/><path d="m13.4225 20.0799c.8003-2.767 2.5411-4.422 4.0496-5.3052 1.1893-.6964 2.6057-.8296 3.982-.7571 2.2102.1164 4.6994.7097 6.8666 3.6025 1.8419 2.4586 2.604 6.2053 0 9.9518-2.6041 3.7466-9.7402 3.9451-12.291 2.8096-1.2663-.5638-4.097-5.1508-2.6072-10.3016z" fill="#dcb088"/><path d="m98.9709 57.1325c1.4191 1.3432 2.9861 1.8256 4.2571 1.9179 1.375.0997 2.694-.4934 3.808-1.3044 1.275-.928 2.465-2.2791 2.745-4.7769.263-2.3421-.689-5.1165-3.868-6.5824-3.179-1.466-7.9757 1.1763-9.2215 2.9188-.6185.865-.708 4.9992 2.2794 7.827z" fill="#502701"/><g clip-rule="evenodd" fill="#000" fill-rule="evenodd"><path d="m56.6762 11.3682c-8.5122-3.92866-19.0213-.039-21.0985 10.3474-.7266 3.633-.4624 7.5418 1.1889 10.9747 1.6921 3.5176 4.7407 6.3047 9.0571 7.6329 3.1966.9835 6.561 1.3925 9.7159 2.5099 2.4391.8638 3.2608 1.7576 3.5629 3.0664.2334 1.0116-.218 2.5254-2.2876 3.8751-2.0438 1.3329-4.5761 1.6855-6.379.9921-2.8797-1.1076-4.3112-2.1234-5.135-2.8648-2.1082-1.8974-3.4976-4.5301-5.2725-6.6909-1.7737-2.1592-4.4552-4.5658-8.5583-5.5916-7.8302-1.9575-16.4056 1.9327-19.6688 9.8576-4.26928 10.3681 1.5279 22.271 11.9137 23.0128 3.539.2528 6.7402.493 9.3577.9002 1.3003.2023 2.3511.4307 3.1591.6843 1.845.5791 1.1061 3.1823-.1928 4.0315-.3837.2509-1.1466.5686-2.6274.4154-7.9197-.8193-13.947.7231-18.0097 4.3421-4.0501 3.6078-5.40191 8.6153-5.4019 13.1367 0 4.9373 2.7133 9.393 5.7528 12.447 2.9588 2.973 7.172 5.553 11.2473 5.553 11.5922 0 16.9999-7.676 16.9999-14 0-1.7646.2351-3.2425.6553-4.1879.5552-1.2493 2.6819-1.4791 3.6808-.6587.4333.356 1.6975 1.916 2.1777 7.6788.332 3.9838 2.3016 7.0038 5.1938 8.8418 2.743 1.744 6.033 2.262 9.0302 2.059 3.0185-.206 6.1089-1.163 8.6558-2.811 2.5372-1.641 4.8387-4.187 5.5287-7.6375 1.0348-5.1738-.6881-9.1896-3.1345-12.1356-1.9413-2.3378-4.4844-4.1416-6.1838-5.3469-1.2571-.8915-2.4108-2.0989-1.7527-3.7853.1844-.4726.4486-.7069.6645-.8108 1.1828-.5692 2.2188.3984 2.9924 1.1169 1.0627.987 2.0593 2.0428 3.1195 3.0327 2.3385 2.1833 5.9714 5.1446 10.8723 5.1446 5.3226 0 9.5336-4.0667 11.6313-7.8875 2.0363-3.709 3.3787-9.7589-.8029-13.941-2.9409-2.941-6.0686-3.6309-8.1414-4.0882l-.0023-.0005c-.9209-.2032-1.8776-.3837-2.7164-.831-1.7768-.9477-2.3361-2.6318-2.2987-4.5541.0317-1.6311.4541-3.5707 1.3868-5.457 1.8002-3.6405 5.5126-7.1397 12.3057-7.7572 10.4209-.9473 17.1369-12.4259 11.0679-22.5416-5.716-9.52733-17.1364-11.20557-24.6207-4.4017-3.3584 3.0531-5.032 6.4292-6.2473 8.9073-1.9662 4.0094-3.489 5.5586-7.5326 2.4228-2.2824-1.77-3.2007-5.3339-4.6915-7.745-1.7073-2.7614-4.0357-5.3529-8.1617-7.2572zm-13.2539 11.9163c.9228-4.6138 5.4137-6.7239 9.9015-4.6526 2.4214 1.1176 3.6502 2.4871 4.7097 4.2006 1.4865 2.4042 2.5659 5.0278 4.1383 7.3864 1.3783 2.0675 3.7948 3.6127 6 4.6505 2.4801 1.167 6.6636 2.388 10.4482.0227 3.1203-1.9502 4.5843-5.3003 5.6248-7.422 1.1824-2.411 2.3043-4.5634 4.4459-6.5103 3.5157-3.1961 9.0957-2.8745 12.3793 2.5982 2.931 4.8843-.184 10.0267-4.9321 10.4584-9.7069.8825-15.7834 6.1737-18.7526 12.1783-1.452 2.9364-2.1595 6.033-2.2142 8.8475-.0528 2.7132.5002 5.6192 2.094 7.8105 1.3366 1.838 2.8214 3.0956 4.4385 3.958 1.5545.829 3.0767 1.203 4.2176 1.4638 1.7447.3976 3.4392.7428 4.7504 2.054.3179.3179.9108 1.768-.5529 4.434-1.4023 2.5542-3.4413 3.7376-4.6187 3.7376-1.5991 0-3.2396-.9632-5.4128-2.9922-1.0653-.9946-2.0669-2.055-3.1348-3.0469-.9732-.9039-2.4259-2.1685-4.1875-2.7557-2.7062-.9021-5.3933-.8269-7.7182.2919-2.2841 1.0992-3.8324 3.0212-4.648 5.1111-2.0434 5.2361.4227 10.2488 4.7148 13.3222l.005.0036c1.7318 1.24 3.3001 2.363 4.5147 3.8256 1.2466 1.5012 1.9097 3.1297 1.4445 5.4559-.1449.7243-.7092 1.6357-2.0295 2.4894-1.3108.848-3.0697 1.425-4.8532 1.546-1.8049.123-3.2697-.239-4.1953-.828-.7762-.493-1.3888-1.258-1.5135-2.7551-.5198-6.2373-2.0056-10.6773-5.0722-13.1963-3.1935-2.6231-6.949-2.1858-8.9101-1.9407-3.7538.4693-6.0058 2.9371-7.1591 5.5321-1.0799 2.4295-1.3448 5.2016-1.3448 7.437 0 1.6758-1.5922 6-8.9999 6-1.0238 0-3.3106-.92-5.5771-3.1967-2.1857-2.1961-3.423-4.7406-3.423-6.8033 0-3.0449.8982-5.5374 2.7231-7.1631 1.8123-1.6144 5.2851-3.0389 11.8653-2.3581 3.0023.3105 5.6684-.2649 7.8283-1.677 2.1305-1.3929 3.4392-3.3841 4.1466-5.3491.6983-1.9397.8659-3.9893.6226-5.7941-.2194-1.6283-.8915-3.8456-2.6871-5.282-1.1738-.939-2.5773-1.529-3.8712-1.9352-1.3327-.4183-2.8131-.7211-4.3253-.9563-3.0075-.4679-6.5563-.7277-10.0173-.9749-3.6142-.2582-7.8171-5.3553-5.0863-11.9872 1.6779-4.0751 6.1614-6.1849 10.3312-5.1424 1.8969.4742 3.2154 1.5676 4.3167 2.9084 2.0738 2.5246 3.6498 5.3517 6.1025 7.5592 1.6762 1.5085 3.9948 2.9928 7.615 4.3852 4.6971 1.8066 9.9148.6591 13.621-1.7579 3.6805-2.4003 6.979-6.8865 5.7125-12.3749-1.198-5.1912-5.1263-7.5474-8.6872-8.8086-3.2682-1.1575-6.7271-1.5976-10.034-2.6151-2.1836-.6718-3.4734-1.9429-4.2005-3.4545-.7679-1.5963-1.0037-3.6875-.5536-5.9379z"/><path d="m108.069 91.6198c-1.628-3.0562-4.175-4.5723-6.691-5.2294-2.2867-.5972-4.6285-.5006-6.1206-.4391l-.1232.0051c-1.0441.0427-2.7512.1125-4.4379.755-2.5606.9755-6.3165 3.2666-7.9612 7.7969-1.4958 4.1199-.1191 7.6117 1.5982 9.9027 1.6312 2.175 3.7345 3.553 4.7695 4.11 5.3319 2.873 11.3682.62 15.0112-2.433 3.582-3.003 7.012-8.7287 3.955-14.4682zm-8.7126 2.5109c3.2326.8441 1.3476 4.3771-.3811 5.8259-2.3402 1.9614-4.8034 2.2084-6.0783 1.5214-1.4248-.767-3.2933-2.4463-2.6422-4.2396.5555-1.5299 1.9343-2.5348 3.2896-3.0511 1.5998-.6095 4.1982-.478 5.812-.0566z"/><path d="m15.9547 11.3245c2.1598-1.2801 4.4913-1.38586 6.1603-1.2865 2.7427.1634 6.2417 1.0315 9.116 4.7713 2.6004 3.3833 3.6433 8.6723.0853 13.6618-2.1307 2.9881-5.6878 4.1301-8.3177 4.5271-2.6424.3988-5.7001.2489-7.8105-.6669-2.1417-.9293-3.5126-3.238-4.2982-5.3346-.8638-2.3053-1.3162-5.3871-.3369-8.6875 1.0551-3.5556 3.3519-5.7698 5.4017-6.9847zm4.0789 6.882c-.6663.3949-1.436 1.1145-1.8111 2.3785-.9049 3.0494.49 4.9695 3.5822 4.5028 1.827-.2758 2.7391-.8982 2.998-1.2614.9247-1.2967 1.0843-2.8422.0854-4.142-.5894-.7668-1.1165-1.1132-1.5389-1.3027-.8511-.3818-2.4704-.6761-3.3156-.1752z"/><path d="m105.917 61.0086c-1.526 1.1572-3.852 2.3536-6.6154 2.0777-4.9008-.4891-8.7143-4.5446-9.5828-9.2884-.359-1.9605-.3276-4.2868.8762-5.9704 1.1826-1.6541 3.3415-3.0431 5.3545-3.8416 2.0141-.799 5.1295-1.5012 8.0595-.15 4.71 2.1721 6.264 6.5203 5.859 10.1348-.393 3.5001-2.131 5.6577-3.951 7.0379zm-4.834-6.3745c.765-.5799 1.119-1.7197.662-2.6081-.624-1.2102-1.7933-1.0213-2.8456-.6039-1.695.6724-1.6806 1.6303-.2034 3.0286.8305.7862 1.54.826 2.387.1834z"/></g></svg>